<svg xmlns="http://www.w3.org/2000/svg" width="16" height="16" viewBox="0 0 16 16" fill="none">
  <path d="M9.40723 6.34863C9.56896 6.33342 9.71681 6.44552 9.75977 6.5957L9.7793 6.66602L9.77344 6.66895C9.77376 6.67054 9.77408 6.67216 9.77441 6.67383C9.78265 6.71463 9.79401 6.77258 9.80566 6.84375C9.82895 6.98601 9.85417 7.18375 9.86133 7.41699C9.87558 7.88293 9.81864 8.49602 9.5293 9.09863L9.52832 9.10059C9.20035 9.75563 8.56316 10.4928 8.3252 10.7529C8.33305 10.8847 8.34363 10.9926 8.35254 11.0693C8.3574 11.1111 8.36113 11.1441 8.36426 11.166C8.36582 11.177 8.36732 11.1859 8.36816 11.1914C8.36833 11.1925 8.36803 11.1935 8.36816 11.1943C8.41336 11.3839 8.27349 11.5627 8.0918 11.5859L8.0791 11.5879V11.5869H8.03125C7.88361 11.5869 7.72615 11.4852 7.69531 11.3223C7.69192 11.3124 7.68808 11.3035 7.68652 11.2969C7.68348 11.2838 7.68065 11.2674 7.67773 11.25C7.67191 11.2151 7.66623 11.1691 7.66016 11.1143C7.64834 11.0075 7.63611 10.8635 7.62793 10.6934C7.62148 10.6777 7.61135 10.6552 7.5957 10.624C7.58081 10.5943 7.56369 10.5585 7.54785 10.5215C7.29613 10.2765 6.91303 9.8635 6.6123 9.3584C6.30682 8.84513 6.07912 8.22503 6.17188 7.58496C6.17791 7.44813 6.26642 7.34601 6.37891 7.30664L6.43066 7.29297C6.97617 7.15854 7.38909 7.30923 7.65332 7.47754C7.99778 6.98428 8.40485 6.7028 8.74023 6.54492C8.91687 6.4618 9.07335 6.41217 9.18945 6.38379C9.28643 6.3601 9.35965 6.35203 9.39355 6.34961V6.34863C9.39613 6.34828 9.3988 6.34892 9.40137 6.34863C9.40358 6.34854 9.40555 6.34766 9.40723 6.34766V6.34863ZM9.1377 7.12305C8.97811 7.18251 8.77745 7.2854 8.57227 7.45801C8.68523 7.39534 8.82647 7.40711 8.9375 7.48633C9.09903 7.60183 9.11735 7.81002 9.00879 7.96191V7.96289C8.62933 8.48172 8.44494 9.07551 8.35547 9.61035C8.56083 9.34449 8.76592 9.04431 8.90234 8.77148C9.20804 8.15958 9.19888 7.49432 9.1377 7.12305ZM8.46973 7.54785C8.30724 7.70383 8.14658 7.90739 8.00781 8.17383C7.91348 8.37104 7.86115 8.57596 7.84082 8.78027C7.97496 8.36675 8.17193 7.94501 8.46191 7.55762C8.46435 7.55421 8.46721 7.55113 8.46973 7.54785ZM6.82227 7.93555C6.8256 8.03676 6.83661 8.13829 6.8584 8.23926C6.88028 8.17812 6.92057 8.12166 6.98145 8.07812L6.99023 8.07227C7.06059 8.03213 7.14319 8.01566 7.22266 8.02539C7.12114 7.9744 6.9884 7.93555 6.82227 7.93555Z" fill="#213F7D" stroke="#213F7D" stroke-width="0.2"/>
  <path d="M4.7998 5.41992C4.98306 5.42006 5.13965 5.57649 5.13965 5.75977V11.8398C5.13947 12.023 4.98295 12.1796 4.7998 12.1797C4.61656 12.1797 4.46014 12.0231 4.45996 11.8398V5.75977C4.45996 5.57641 4.61645 5.41992 4.7998 5.41992Z" fill="#213F7D" stroke="#213F7D" stroke-width="0.2"/>
  <path d="M3.2002 5.41992C3.38345 5.42006 3.54004 5.57649 3.54004 5.75977V11.8398C3.53986 12.023 3.38334 12.1796 3.2002 12.1797C3.01695 12.1797 2.86053 12.0231 2.86035 11.8398V5.75977C2.86035 5.57641 3.01684 5.41992 3.2002 5.41992Z" fill="#213F7D" stroke="#213F7D" stroke-width="0.2"/>
  <path d="M11.2002 5.41992C11.3834 5.42006 11.54 5.57649 11.54 5.75977V11.8398C11.5399 12.023 11.3833 12.1796 11.2002 12.1797C11.0169 12.1797 10.8605 12.0231 10.8604 11.8398V5.75977C10.8604 5.57641 11.0168 5.41992 11.2002 5.41992Z" fill="#213F7D" stroke="#213F7D" stroke-width="0.2"/>
  <path d="M12.7998 5.41992C12.9831 5.42006 13.1396 5.57649 13.1396 5.75977V11.8398C13.1395 12.023 12.983 12.1796 12.7998 12.1797C12.6166 12.1797 12.4601 12.0231 12.46 11.8398V5.75977C12.46 5.57641 12.6165 5.41992 12.7998 5.41992Z" fill="#213F7D" stroke="#213F7D" stroke-width="0.2"/>
  <path d="M7.83594 1.46582C7.94298 1.40143 8.08382 1.395 8.18652 1.47168L13.5205 4.64844C13.635 4.70062 13.7158 4.83036 13.7158 4.95898V4.97168L13.7139 4.9707C13.7003 5.08271 13.6322 5.18712 13.5352 5.24707L13.582 5.2998H2.63965C2.48423 5.29974 2.34187 5.18949 2.31738 5.04004L2.31836 5.03906C2.27879 4.8817 2.35202 4.74939 2.47266 4.66895L2.47656 4.66602L7.83594 1.4668V1.46582ZM3.86523 4.62012H12.1191L7.99902 2.14746L3.86523 4.62012Z" fill="#213F7D" stroke="#213F7D" stroke-width="0.2"/>
  <path d="M13.3594 12.2998C13.5427 12.2998 13.6992 12.4563 13.6992 12.6396C13.6991 12.8229 13.5427 12.9795 13.3594 12.9795H2.63965C2.45637 12.9795 2.29994 12.8229 2.2998 12.6396C2.2998 12.4563 2.4563 12.2998 2.63965 12.2998H13.3594Z" fill="#213F7D" stroke="#213F7D" stroke-width="0.2"/>
  <path d="M14.1592 13.1006C14.3425 13.1006 14.5 13.2571 14.5 13.4404C14.4999 13.6237 14.3425 13.7803 14.1592 13.7803H1.83984C1.65657 13.7803 1.50013 13.6237 1.5 13.4404C1.5 13.2571 1.65649 13.1006 1.83984 13.1006H14.1592Z" fill="#213F7D" stroke="#213F7D" stroke-width="0.2"/>
  <path d="M14.96 13.9004C15.1432 13.9005 15.2998 14.0569 15.2998 14.2402C15.2997 14.4234 15.1432 14.58 14.96 14.5801H1.04004C0.856764 14.5801 0.700329 14.4235 0.700195 14.2402C0.700195 14.0569 0.856686 13.9004 1.04004 13.9004H14.96Z" fill="#213F7D" stroke="#213F7D" stroke-width="0.2"/>
</svg>
