<svg xmlns="http://www.w3.org/2000/svg" width="16" height="22" viewBox="0 0 16 22" fill="none">
  <g clip-path="url(#clip0_64_704)">
    <path opacity="0.4" d="M14 2.66699H10.6667C11.3739 2.66699 12.0522 2.94794 12.5523 3.44804C13.0524 3.94814 13.3333 4.62641 13.3333 5.33366H2.66667C2.66667 4.62641 2.94762 3.94814 3.44772 3.44804C3.94781 2.94794 4.62609 2.66699 5.33333 2.66699H2C1.46957 2.66699 0.960859 2.87771 0.585786 3.25278C0.210714 3.62785 0 4.13656 0 4.66699L0 19.3337C0 19.8641 0.210714 20.3728 0.585786 20.7479C0.960859 21.1229 1.46957 21.3337 2 21.3337H14C14.5304 21.3337 15.0391 21.1229 15.4142 20.7479C15.7893 20.3728 16 19.8641 16 19.3337V4.66699C16 4.13656 15.7893 3.62785 15.4142 3.25278C15.0391 2.87771 14.5304 2.66699 14 2.66699V2.66699ZM4 17.667C3.80222 17.667 3.60888 17.6083 3.44443 17.4985C3.27998 17.3886 3.15181 17.2324 3.07612 17.0497C3.00043 16.8669 2.98063 16.6659 3.01921 16.4719C3.0578 16.2779 3.15304 16.0997 3.29289 15.9599C3.43275 15.82 3.61093 15.7248 3.80491 15.6862C3.99889 15.6476 4.19996 15.6674 4.38268 15.7431C4.56541 15.8188 4.72159 15.947 4.83147 16.1114C4.94135 16.2759 5 16.4692 5 16.667C5.00033 16.7984 4.97469 16.9286 4.92455 17.0501C4.87441 17.1715 4.80077 17.2819 4.70784 17.3748C4.61492 17.4678 4.50455 17.5414 4.38307 17.5915C4.2616 17.6417 4.13141 17.6673 4 17.667V17.667ZM4 13.667C3.80222 13.667 3.60888 13.6083 3.44443 13.4985C3.27998 13.3886 3.15181 13.2324 3.07612 13.0497C3.00043 12.8669 2.98063 12.6659 3.01921 12.4719C3.0578 12.2779 3.15304 12.0997 3.29289 11.9599C3.43275 11.82 3.61093 11.7248 3.80491 11.6862C3.99889 11.6476 4.19996 11.6674 4.38268 11.7431C4.56541 11.8188 4.72159 11.947 4.83147 12.1114C4.94135 12.2759 5 12.4692 5 12.667C5.00033 12.7984 4.97469 12.9286 4.92455 13.0501C4.87441 13.1715 4.80077 13.2819 4.70784 13.3748C4.61492 13.4678 4.50455 13.5414 4.38307 13.5915C4.2616 13.6417 4.13141 13.6673 4 13.667V13.667ZM4 9.66699C3.80222 9.66699 3.60888 9.60834 3.44443 9.49846C3.27998 9.38858 3.15181 9.2324 3.07612 9.04968C3.00043 8.86695 2.98063 8.66588 3.01921 8.4719C3.0578 8.27792 3.15304 8.09974 3.29289 7.95989C3.43275 7.82003 3.61093 7.72479 3.80491 7.68621C3.99889 7.64762 4.19996 7.66743 4.38268 7.74311C4.56541 7.8188 4.72159 7.94697 4.83147 8.11142C4.94135 8.27587 5 8.46921 5 8.66699C5.00033 8.79841 4.97469 8.92859 4.92455 9.05007C4.87441 9.17154 4.80077 9.28191 4.70784 9.37483C4.61492 9.46776 4.50455 9.54141 4.38307 9.59154C4.2616 9.64168 4.13141 9.66732 4 9.66699V9.66699ZM13.3333 17.0003C13.3333 17.0887 13.2982 17.1735 13.2357 17.236C13.1732 17.2985 13.0884 17.3337 13 17.3337H7C6.91159 17.3337 6.82681 17.2985 6.7643 17.236C6.70179 17.1735 6.66667 17.0887 6.66667 17.0003V16.3337C6.66667 16.2453 6.70179 16.1605 6.7643 16.098C6.82681 16.0354 6.91159 16.0003 7 16.0003H13C13.0884 16.0003 13.1732 16.0354 13.2357 16.098C13.2982 16.1605 13.3333 16.2453 13.3333 16.3337V17.0003ZM13.3333 13.0003C13.3333 13.0887 13.2982 13.1735 13.2357 13.236C13.1732 13.2985 13.0884 13.3337 13 13.3337H7C6.91159 13.3337 6.82681 13.2985 6.7643 13.236C6.70179 13.1735 6.66667 13.0887 6.66667 13.0003V12.3337C6.66667 12.2453 6.70179 12.1605 6.7643 12.098C6.82681 12.0354 6.91159 12.0003 7 12.0003H13C13.0884 12.0003 13.1732 12.0354 13.2357 12.098C13.2982 12.1605 13.3333 12.2453 13.3333 12.3337V13.0003ZM13.3333 9.00033C13.3333 9.08873 13.2982 9.17352 13.2357 9.23603C13.1732 9.29854 13.0884 9.33366 13 9.33366H7C6.91159 9.33366 6.82681 9.29854 6.7643 9.23603C6.70179 9.17352 6.66667 9.08873 6.66667 9.00033V8.33366C6.66667 8.24525 6.70179 8.16047 6.7643 8.09796C6.82681 8.03544 6.91159 8.00033 7 8.00033H13C13.0884 8.00033 13.1732 8.03544 13.2357 8.09796C13.2982 8.16047 13.3333 8.24525 13.3333 8.33366V9.00033Z" fill="#213F7D"/>
    <path d="M4.00033 15.6667C3.80254 15.6667 3.6092 15.7253 3.44476 15.8352C3.28031 15.9451 3.15213 16.1013 3.07645 16.284C3.00076 16.4667 2.98095 16.6678 3.01954 16.8618C3.05813 17.0557 3.15337 17.2339 3.29322 17.3738C3.43307 17.5136 3.61125 17.6089 3.80524 17.6475C3.99922 17.686 4.20028 17.6662 4.38301 17.5905C4.56573 17.5149 4.72191 17.3867 4.83179 17.2222C4.94168 17.0578 5.00033 16.8644 5.00033 16.6667C5.00066 16.5353 4.97501 16.4051 4.92488 16.2836C4.87474 16.1621 4.80109 16.0517 4.70817 15.9588C4.61524 15.8659 4.50487 15.7923 4.3834 15.7421C4.26192 15.692 4.13174 15.6663 4.00033 15.6667V15.6667ZM4.00033 11.6667C3.80254 11.6667 3.6092 11.7253 3.44476 11.8352C3.28031 11.9451 3.15213 12.1013 3.07645 12.284C3.00076 12.4667 2.98095 12.6678 3.01954 12.8618C3.05813 13.0557 3.15337 13.2339 3.29322 13.3738C3.43307 13.5136 3.61125 13.6089 3.80524 13.6475C3.99922 13.686 4.20028 13.6662 4.38301 13.5905C4.56573 13.5149 4.72191 13.3867 4.83179 13.2222C4.94168 13.0578 5.00033 12.8644 5.00033 12.6667C5.00066 12.5353 4.97501 12.4051 4.92488 12.2836C4.87474 12.1621 4.80109 12.0517 4.70817 11.9588C4.61524 11.8659 4.50487 11.7923 4.3834 11.7421C4.26192 11.692 4.13174 11.6663 4.00033 11.6667V11.6667ZM4.00033 7.66667C3.80254 7.66667 3.6092 7.72532 3.44476 7.8352C3.28031 7.94508 3.15213 8.10126 3.07645 8.28398C3.00076 8.46671 2.98095 8.66778 3.01954 8.86176C3.05813 9.05574 3.15337 9.23392 3.29322 9.37377C3.43307 9.51363 3.61125 9.60887 3.80524 9.64745C3.99922 9.68604 4.20028 9.66623 4.38301 9.59055C4.56573 9.51486 4.72191 9.38669 4.83179 9.22224C4.94168 9.05779 5.00033 8.86445 5.00033 8.66667C5.00066 8.53525 4.97501 8.40507 4.92488 8.28359C4.87474 8.16212 4.80109 8.05175 4.70817 7.95883C4.61524 7.8659 4.50487 7.79225 4.3834 7.74212C4.26192 7.69198 4.13174 7.66634 4.00033 7.66667V7.66667ZM10.667 2.66667C10.667 1.95942 10.386 1.28115 9.88594 0.781049C9.38585 0.280952 8.70757 0 8.00033 0C7.29308 0 6.6148 0.280952 6.11471 0.781049C5.61461 1.28115 5.33366 1.95942 5.33366 2.66667C4.62641 2.66667 3.94814 2.94762 3.44804 3.44772C2.94794 3.94781 2.66699 4.62609 2.66699 5.33333H13.3337C13.3337 4.62609 13.0527 3.94781 12.5526 3.44772C12.0525 2.94762 11.3742 2.66667 10.667 2.66667ZM8.00033 3.66667C7.80254 3.66667 7.6092 3.60802 7.44476 3.49814C7.28031 3.38825 7.15213 3.23208 7.07645 3.04935C7.00076 2.86662 6.98095 2.66556 7.01954 2.47158C7.05813 2.2776 7.15337 2.09941 7.29322 1.95956C7.43307 1.81971 7.61125 1.72447 7.80523 1.68588C7.99922 1.6473 8.20028 1.6671 8.38301 1.74279C8.56573 1.81847 8.72191 1.94665 8.8318 2.1111C8.94168 2.27555 9.00033 2.46889 9.00033 2.66667C9.00065 2.79808 8.97501 2.92827 8.92488 3.04974C8.87474 3.17121 8.80109 3.28158 8.70817 3.37451C8.61524 3.46743 8.50487 3.54108 8.3834 3.59122C8.26192 3.64136 8.13174 3.667 8.00033 3.66667V3.66667Z" fill="#213F7D"/>
  </g>
  <defs>
    <clipPath id="clip0_64_704">
      <rect width="16" height="21.3333" fill="white"/>
    </clipPath>
  </defs>
</svg>
