<svg xmlns="http://www.w3.org/2000/svg" width="16" height="15" viewBox="0 0 16 15" fill="none">
  <g clip-path="url(#clip0_64_659)">
    <path opacity="0.4" d="M9.33366 12.8775V10.2223C9.33366 10.1044 9.28683 9.99133 9.20348 9.90798C9.12013 9.82463 9.00709 9.77781 8.88921 9.77781H7.11144C6.99356 9.77781 6.88052 9.82463 6.79717 9.90798C6.71382 9.99133 6.66699 10.1044 6.66699 10.2223V12.8809C6.66699 12.9984 6.62047 13.1111 6.5376 13.1943C6.45473 13.2776 6.34226 13.3247 6.22477 13.3253L3.11144 13.3334C2.99356 13.3334 2.88052 13.2865 2.79717 13.2032C2.71382 13.1198 2.66699 13.0068 2.66699 12.8889V8.33503L7.78894 4.11697C7.84913 4.06845 7.92412 4.04199 8.00144 4.04199C8.07875 4.04199 8.15374 4.06845 8.21394 4.11697L13.3337 8.33336V12.8889C13.3337 13.0068 13.2868 13.1198 13.2035 13.2032C13.1201 13.2865 13.0071 13.3334 12.8892 13.3334L9.7781 13.3248C9.7195 13.3248 9.66148 13.3132 9.60738 13.2907C9.55327 13.2681 9.50415 13.2352 9.46285 13.1936C9.42154 13.152 9.38886 13.1027 9.36669 13.0485C9.34452 12.9942 9.33329 12.9361 9.33366 12.8775Z" fill="#213F7D"/>
    <path d="M15.9255 7.45395L15.2172 8.31506C15.1894 8.34892 15.1552 8.37696 15.1166 8.39759C15.0779 8.41822 15.0356 8.43103 14.992 8.43528C14.9484 8.43954 14.9044 8.43516 14.8625 8.4224C14.8206 8.40963 14.7816 8.38873 14.7478 8.36089L8.21362 2.97784C8.15342 2.92932 8.07844 2.90286 8.00112 2.90286C7.9238 2.90286 7.84882 2.92932 7.78862 2.97784L1.25475 8.36089C1.18646 8.41703 1.09866 8.44374 1.01068 8.43514C0.922692 8.42655 0.841724 8.38335 0.785587 8.31506L0.0772555 7.45395C0.020991 7.3858 -0.00590471 7.29809 0.0024817 7.21011C0.0108681 7.12213 0.0538501 7.04108 0.121978 6.98478L7.15251 1.19423C7.39117 0.997833 7.69065 0.890453 7.99973 0.890453C8.30881 0.890453 8.60829 0.997833 8.84695 1.19423L11.3333 3.23895V1.22201C11.3333 1.1336 11.3684 1.04882 11.431 0.986303C11.4935 0.923791 11.5783 0.888672 11.6667 0.888672H13.2222C13.3106 0.888672 13.3954 0.923791 13.4579 0.986303C13.5204 1.04882 13.5555 1.1336 13.5555 1.22201V5.06951L15.8778 6.98367C15.9119 7.01134 15.9402 7.04548 15.9611 7.08413C15.9819 7.12278 15.995 7.16517 15.9994 7.20888C16.0039 7.25258 15.9996 7.29673 15.9869 7.33879C15.9743 7.38085 15.9534 7.41998 15.9255 7.45395V7.45395Z" fill="#213F7D"/>
  </g>
  <defs>
    <clipPath id="clip0_64_659">
      <rect width="16" height="14.2222" fill="white"/>
    </clipPath>
  </defs>
</svg>
