<svg xmlns="http://www.w3.org/2000/svg" width="16" height="16" viewBox="0 0 16 16" fill="none">
  <path fill-rule="evenodd" clip-rule="evenodd" d="M7.98474 1.28736C7.85099 1.29299 7.73474 1.38111 7.69349 1.50861L6.18661 6.17981L1.27973 6.16981C1.14098 6.16981 1.01724 6.25918 0.974739 6.39106C0.931614 6.52356 0.979114 6.66794 1.09161 6.74981L5.06793 9.62661L3.54105 14.2928C3.49793 14.4247 3.5448 14.5697 3.6573 14.651C3.76918 14.7329 3.92167 14.7329 4.03356 14.651L7.99852 11.7579L11.9648 14.651C12.0766 14.7329 12.2291 14.7329 12.341 14.651C12.4535 14.5697 12.5004 14.4247 12.4573 14.2928L10.9304 9.62661L14.9067 6.74981C15.0192 6.66793 15.0667 6.52355 15.0236 6.39106C14.9805 6.25918 14.8573 6.16981 14.7186 6.17043L9.81171 6.18043L8.30296 1.50923V1.50861C8.25858 1.37173 8.12859 1.28173 7.98483 1.28736L7.98474 1.28736Z" fill="#E9B200"/>
</svg>
