<svg xmlns="http://www.w3.org/2000/svg" width="16" height="16" viewBox="0 0 16 16" fill="none">
  <g clip-path="url(#clip0_64_743)">
    <path opacity="0.4" d="M4.76301 11.8766C4.27092 11.7744 3.79433 11.6083 3.34542 11.3823C2.56313 11.4982 1.76409 11.4053 1.02927 11.113C0.609111 10.9446 0.23973 11.4467 0.526105 11.7972C0.960226 12.3264 1.47975 12.7794 2.0632 13.1373C3.57381 14.0706 5.44721 14.2439 7.10027 13.6831C7.54354 13.092 7.83351 12.4003 7.94426 11.6698C6.92117 12.0207 5.82292 12.0921 4.76301 11.8766V11.8766ZM4.33076 7.94443C3.97977 6.92132 3.90838 5.82304 4.12398 4.7631C4.22607 4.27103 4.39219 3.79446 4.61811 3.34556C4.50228 2.56325 4.59517 1.76421 4.8874 1.02934C5.05585 0.609296 4.55366 0.239728 4.2032 0.526044C3.67396 0.960135 3.22106 1.47969 2.86324 2.06321C1.9299 3.57389 1.75656 5.44724 2.31735 7.10032C2.9085 7.54361 3.60022 7.83361 4.33076 7.94443V7.94443ZM11.6696 8.05613C12.0206 9.07924 12.0919 10.1775 11.8764 11.2375C11.7743 11.7295 11.6081 12.2061 11.3822 12.655C11.4981 13.4373 11.4052 14.2363 11.1129 14.9712C10.9445 15.3913 11.4467 15.7608 11.7971 15.4745C12.3263 15.0404 12.7792 14.5208 13.1371 13.9373C14.0704 12.4267 14.2438 10.5533 13.683 8.90024C13.0918 8.45695 12.4001 8.16695 11.6696 8.05613V8.05613ZM15.4742 4.20335C15.0401 3.67409 14.5206 3.22114 13.9371 2.8632C12.4265 1.92991 10.5531 1.75663 8.90006 2.31742C8.45678 2.90855 8.16682 3.60027 8.05608 4.33079C9.07917 3.97986 10.1774 3.90847 11.2373 4.124C11.7294 4.22612 12.206 4.39226 12.6549 4.6182C13.4372 4.50226 14.2362 4.59516 14.9711 4.88749C15.3912 5.05595 15.7606 4.55381 15.4742 4.20335Z" fill="#213F7D"/>
    <path d="M15.8301 8.56534C15.3052 6.3433 13.4758 4.57041 11.2368 4.12333C10.1769 3.90779 9.07861 3.97918 8.05552 4.33011C8.16925 3.5734 8.47442 2.85829 8.94209 2.25262C9.40975 1.64696 10.0244 1.17081 10.7277 0.869362C11.1439 0.691383 11.0501 0.0750498 10.5998 0.0297017C9.91861 -0.0375299 9.23095 0.00956678 8.56528 0.169045C6.34337 0.693947 4.57044 2.52341 4.12342 4.76242C3.90783 5.82236 3.97922 6.92065 4.3302 7.94376C3.57349 7.83 2.85838 7.52481 2.25271 7.05713C1.64703 6.58945 1.17088 5.97479 0.869417 5.27146C0.69144 4.85538 0.0751104 4.94907 0.029702 5.39939C-0.0375385 6.08058 0.00957863 6.76822 0.169105 7.43387C0.694003 9.65592 2.52346 11.4288 4.76245 11.8759C5.82237 12.0914 6.92061 12.02 7.9437 11.6691C7.82998 12.4258 7.5248 13.1409 7.05713 13.7466C6.58947 14.3523 5.97481 14.8284 5.27148 15.1298C4.85535 15.3078 4.9491 15.9242 5.39941 15.9695C6.08062 16.0367 6.76827 15.9896 7.43394 15.8302C9.65585 15.3053 11.4288 13.4758 11.8758 11.2368C12.0914 10.1768 12.02 9.07856 11.669 8.05545C12.4257 8.16921 13.1408 8.4744 13.7465 8.94208C14.3522 9.40976 14.8283 10.0244 15.1298 10.7278C15.3078 11.1438 15.9241 11.0501 15.9695 10.5998C16.0368 9.91863 15.9896 9.23099 15.8301 8.56534V8.56534ZM7.99961 9.4996C7.70294 9.49961 7.41293 9.41164 7.16625 9.24682C6.91958 9.08199 6.72732 8.84773 6.61378 8.57364C6.50025 8.29955 6.47054 7.99795 6.52842 7.70698C6.5863 7.41601 6.72916 7.14873 6.93893 6.93895C7.14871 6.72917 7.41599 6.58631 7.70696 6.52843C7.99793 6.47055 8.29953 6.50026 8.57362 6.61379C8.84771 6.72732 9.08198 6.91958 9.2468 7.16625C9.41162 7.41292 9.4996 7.70293 9.4996 7.99961C9.49959 8.39743 9.34155 8.77895 9.06025 9.06025C8.77895 9.34155 8.39743 9.49959 7.99961 9.4996Z" fill="#213F7D"/>
  </g>
  <defs>
    <clipPath id="clip0_64_743">
      <rect width="16" height="16" fill="white"/>
    </clipPath>
  </defs>
</svg>
