<svg xmlns="http://www.w3.org/2000/svg" width="16" height="15" viewBox="0 0 16 15" fill="none">
  <g clip-path="url(#clip0_64_820)">
    <path opacity="0.4" d="M15.5559 6.22255H14.7362C14.4925 5.67139 14.1392 5.17559 13.6978 4.76533L14.2225 2.66699H13.3337C12.517 2.66699 11.795 3.04199 11.3059 3.62033C11.0956 3.58977 10.8859 3.55588 10.667 3.55588H7.11144C4.47755 3.55588 2.66699 5.74699 2.66699 8.00033C2.66645 8.6904 2.82686 9.37109 3.13547 9.98831C3.44408 10.6055 3.89239 11.1423 4.44477 11.5559V13.7781C4.44477 13.896 4.4916 14.009 4.57495 14.0924C4.6583 14.1757 4.77134 14.2225 4.88922 14.2225H6.66699C6.78487 14.2225 6.89791 14.1757 6.98126 14.0924C7.06461 14.009 7.11144 13.896 7.11144 13.7781V12.4448H10.667V13.7781C10.667 13.896 10.7138 14.009 10.7972 14.0924C10.8805 14.1757 10.9936 14.2225 11.1114 14.2225H12.8892C13.0071 14.2225 13.1201 14.1757 13.2035 14.0924C13.2868 14.009 13.3337 13.896 13.3337 13.7781V11.5359C13.662 11.2878 13.9544 10.9954 14.2025 10.667H15.5559C15.6738 10.667 15.7868 10.6202 15.8702 10.5368C15.9535 10.4535 16.0003 10.3404 16.0003 10.2225V6.66699C16.0003 6.54912 15.9535 6.43607 15.8702 6.35272C15.7868 6.26937 15.6738 6.22255 15.5559 6.22255ZM12.0003 8.00033C11.9124 8.00033 11.8265 7.97426 11.7534 7.92542C11.6803 7.87659 11.6234 7.80717 11.5897 7.72596C11.5561 7.64475 11.5473 7.55539 11.5644 7.46917C11.5816 7.38296 11.6239 7.30377 11.6861 7.24161C11.7482 7.17945 11.8274 7.13713 11.9136 7.11998C11.9998 7.10283 12.0892 7.11163 12.1704 7.14527C12.2516 7.17891 12.321 7.23587 12.3699 7.30896C12.4187 7.38205 12.4448 7.46798 12.4448 7.55588C12.4448 7.67376 12.3979 7.7868 12.3146 7.87015C12.2312 7.9535 12.1182 8.00033 12.0003 8.00033Z" fill="#213F7D"/>
    <path d="M1.42389 7.09778C1.33809 7.08034 1.25657 7.04618 1.18397 6.99724C1.11138 6.9483 1.04913 6.88554 1.0008 6.81254C0.952457 6.73954 0.918971 6.65774 0.902248 6.5718C0.885526 6.48586 0.885895 6.39746 0.903335 6.31167C0.965002 5.995 1.26111 5.77778 1.58333 5.77778H1.61111C1.65532 5.77778 1.69771 5.76022 1.72896 5.72896C1.76022 5.69771 1.77778 5.65531 1.77778 5.61111V5.05556C1.77778 5.01135 1.76022 4.96896 1.72896 4.9377C1.69771 4.90645 1.65532 4.88889 1.61111 4.88889C0.819446 4.88889 0.11389 5.45556 0.0130571 6.23944C0.00426675 6.30603 -9.46853e-05 6.37312 1.5585e-06 6.44028C-0.000514501 6.85338 0.163075 7.24977 0.454791 7.54227C0.746506 7.83476 1.14246 7.99941 1.55556 8H2.66667C2.66696 7.70126 2.69833 7.40336 2.76028 7.11111H1.55556C1.51133 7.11111 1.46722 7.10665 1.42389 7.09778V7.09778ZM12 7.11111C11.9121 7.11111 11.8262 7.13718 11.7531 7.18601C11.68 7.23485 11.623 7.30426 11.5894 7.38547C11.5557 7.46669 11.5469 7.55605 11.5641 7.64226C11.5812 7.72848 11.6236 7.80767 11.6857 7.86983C11.7479 7.93198 11.8271 7.97431 11.9133 7.99146C11.9995 8.00861 12.0889 7.99981 12.1701 7.96617C12.2513 7.93253 12.3207 7.87556 12.3695 7.80248C12.4184 7.72939 12.4444 7.64346 12.4444 7.55556C12.4444 7.43768 12.3976 7.32464 12.3143 7.24129C12.2309 7.15794 12.1179 7.11111 12 7.11111ZM8.51389 8.07944e-08C8.07588 -0.000107729 7.64458 0.107681 7.25812 0.313839C6.87166 0.519998 6.54193 0.818179 6.29807 1.18203C6.05421 1.54588 5.90373 1.9642 5.85993 2.40002C5.81613 2.83584 5.88036 3.27573 6.04695 3.68083C6.39544 3.59701 6.75268 3.55495 7.11111 3.55556H10.6667C10.7847 3.5565 10.9026 3.56467 11.0197 3.58C11.1662 3.17708 11.2134 2.74481 11.1574 2.31977C11.1014 1.89473 10.9438 1.48944 10.698 1.13821C10.4522 0.786988 10.1253 0.500171 9.74512 0.302042C9.36493 0.103914 8.9426 0.000309799 8.51389 8.07944e-08V8.07944e-08Z" fill="#213F7D"/>
  </g>
  <defs>
    <clipPath id="clip0_64_820">
      <rect width="16" height="14.2222" fill="white"/>
    </clipPath>
  </defs>
</svg>
