<svg xmlns="http://www.w3.org/2000/svg" width="16" height="16" viewBox="0 0 16 16" fill="none">
  <g clip-path="url(#clip0_155_456)">
    <path fill-rule="evenodd" clip-rule="evenodd" d="M7.98536 0.959351C7.85286 0.966226 7.73786 1.05373 7.69661 1.17997L6.09037 5.99934H0.94605V5.99996C0.807925 5.99996 0.685426 6.08871 0.64293 6.21996C0.599805 6.35121 0.646055 6.49497 0.75668 6.57746L4.9354 9.63314L3.32916 14.6207V14.62C3.28604 14.7525 3.33353 14.8969 3.44604 14.9782C3.55853 15.06 3.7104 15.0594 3.82229 14.9775L8.00101 11.9219L12.1797 14.9775C12.2916 15.0594 12.4435 15.06 12.556 14.9782C12.6685 14.8969 12.716 14.7525 12.6729 14.62L11.0666 9.63252L15.2453 6.57684V6.57746C15.356 6.49496 15.4022 6.35121 15.3591 6.21996C15.3166 6.08871 15.1941 5.99996 15.056 5.99996H9.91165L8.30541 1.1806V1.17997C8.26104 1.0431 8.12978 0.952471 7.98541 0.959351H7.98536ZM8.00099 2.29309L9.37662 6.41933V6.41996C9.41912 6.55121 9.54225 6.64058 9.68099 6.63996H14.0747L10.4997 9.25436V9.25498C10.3885 9.33624 10.3416 9.47998 10.3841 9.61187L11.7597 13.88L8.19027 11.2706H8.18965C8.07715 11.1881 7.92466 11.1881 7.81214 11.2706L4.2427 13.88L5.61834 9.61187H5.61771C5.66021 9.47999 5.61334 9.33623 5.50209 9.25498L1.92705 6.64058H6.32081V6.63996C6.45956 6.64058 6.58268 6.55121 6.62517 6.41996L8.00081 2.29372L8.00099 2.29309Z" fill="#E9B200"/>
  </g>
  <defs>
    <clipPath id="clip0_155_456">
      <rect width="16" height="16" fill="white"/>
    </clipPath>
  </defs>
</svg>
