<svg xmlns="http://www.w3.org/2000/svg" width="16" height="13" viewBox="0 0 16 13" fill="none">
  <path opacity="0.4" d="M2.4 5.60039C2.71645 5.60039 3.02579 5.50655 3.28891 5.33074C3.55203 5.15493 3.75711 4.90505 3.87821 4.61269C3.99931 4.32032 4.03099 3.99862 3.96926 3.68825C3.90752 3.37788 3.75513 3.09278 3.53137 2.86902C3.30761 2.64526 3.02251 2.49287 2.71214 2.43113C2.40177 2.3694 2.08007 2.40108 1.78771 2.52218C1.49534 2.64328 1.24546 2.84836 1.06965 3.11148C0.893838 3.3746 0.8 3.68394 0.8 4.00039C0.800397 4.42462 0.969096 4.83135 1.26907 5.13132C1.56904 5.4313 1.97578 5.59999 2.4 5.60039V5.60039ZM14.4 6.40039H12.8C12.3774 6.39993 11.9719 6.56717 11.6725 6.86539C12.1789 7.14099 12.613 7.53242 12.9392 8.00773C13.2655 8.48305 13.4748 9.02878 13.55 9.60039H15.2C15.4122 9.60039 15.6157 9.51611 15.7657 9.36608C15.9157 9.21605 16 9.01257 16 8.80039V8.00039C15.9996 7.57617 15.8309 7.16943 15.5309 6.86946C15.231 6.56949 14.8242 6.40079 14.4 6.40039ZM1.6 6.40039C1.17578 6.40079 0.76904 6.56949 0.469068 6.86946C0.169096 7.16943 0.000397152 7.57617 0 8.00039V8.80039C0 9.01257 0.0842855 9.21605 0.234315 9.36608C0.384344 9.51611 0.587827 9.60039 0.8 9.60039H2.4475C2.52367 9.02878 2.73362 8.48319 3.06028 8.00797C3.38694 7.53274 3.82111 7.14128 4.3275 6.86539C4.02809 6.56717 3.62259 6.39993 3.2 6.40039H1.6ZM13.6 5.60039C13.9165 5.60039 14.2258 5.50655 14.4889 5.33074C14.752 5.15493 14.9571 4.90505 15.0782 4.61269C15.1993 4.32032 15.231 3.99862 15.1693 3.68825C15.1075 3.37788 14.9551 3.09278 14.7314 2.86902C14.5076 2.64526 14.2225 2.49287 13.9121 2.43113C13.6018 2.3694 13.2801 2.40108 12.9877 2.52218C12.6953 2.64328 12.4455 2.84836 12.2696 3.11148C12.0938 3.3746 12 3.68394 12 4.00039C12.0004 4.42462 12.1691 4.83135 12.4691 5.13132C12.769 5.4313 13.1758 5.59999 13.6 5.60039Z" fill="#213F7D"/>
  <path d="M9.9202 7.19981H9.7127C9.17931 7.46052 8.59388 7.59726 8.0002 7.59981C7.3852 7.59981 6.8102 7.44981 6.2877 7.19981H6.0802C5.31643 7.20001 4.58401 7.5035 4.04395 8.04356C3.50389 8.58362 3.20039 9.31604 3.2002 10.0798V10.7998C3.2002 11.1181 3.32662 11.4233 3.55167 11.6483C3.77671 11.8734 4.08194 11.9998 4.4002 11.9998H11.6002C11.9185 11.9998 12.2237 11.8734 12.4487 11.6483C12.6738 11.4233 12.8002 11.1181 12.8002 10.7998V10.0798C12.8 9.31604 12.4965 8.58362 11.9564 8.04356C11.4164 7.5035 10.684 7.20001 9.9202 7.19981V7.19981ZM8.0002 6.39981C8.55398 6.39981 9.09533 6.23559 9.55579 5.92792C10.0162 5.62025 10.3751 5.18295 10.5871 4.67132C10.799 4.15969 10.8544 3.5967 10.7464 3.05355C10.6384 2.51041 10.3717 2.01149 9.98009 1.61991C9.58851 1.22832 9.0896 0.961646 8.54645 0.853607C8.0033 0.745569 7.44032 0.801018 6.92868 1.01294C6.41705 1.22487 5.97975 1.58375 5.67208 2.04421C5.36441 2.50467 5.2002 3.04602 5.2002 3.59981C5.2 3.96756 5.27229 4.33175 5.41293 4.67155C5.55357 5.01135 5.75981 5.3201 6.01986 5.58014C6.2799 5.84019 6.58865 6.04643 6.92845 6.18707C7.26825 6.32771 7.63244 6.4 8.0002 6.39981Z" fill="#213F7D"/>
</svg>
