<svg xmlns="http://www.w3.org/2000/svg" width="16" height="13" viewBox="0 0 16 13" fill="none">
  <path opacity="0.4" d="M11.9997 6.39961C12.4744 6.39961 12.9384 6.25885 13.3331 5.99514C13.7278 5.73142 14.0354 5.35659 14.2171 4.91805C14.3987 4.47951 14.4462 3.99695 14.3536 3.53139C14.261 3.06584 14.0324 2.6382 13.6968 2.30255C13.3612 1.96691 12.9335 1.73833 12.468 1.64573C12.0024 1.55312 11.5198 1.60065 11.0813 1.7823C10.6427 1.96395 10.2679 2.27156 10.0042 2.66624C9.74049 3.06092 9.59973 3.52494 9.59973 3.99961C9.59973 4.63613 9.85258 5.24658 10.3027 5.69667C10.7528 6.14675 11.3632 6.39961 11.9997 6.39961ZM13.1997 7.19961H13.1047C12.7572 7.31961 12.3897 7.39961 11.9997 7.39961C11.6097 7.39961 11.2422 7.31961 10.8947 7.19961H10.7997C10.2897 7.19961 9.81973 7.34711 9.40723 7.58461C10.0172 8.24211 10.3997 9.11461 10.3997 10.0796V11.0396C10.3997 11.0946 10.3872 11.1471 10.3847 11.1996H14.7997C15.118 11.1996 15.4232 11.0732 15.6483 10.8481C15.8733 10.6231 15.9998 10.3179 15.9998 9.99961C15.9999 9.63185 15.9277 9.26766 15.787 8.92786C15.6464 8.58806 15.4401 8.27931 15.1801 8.01927C14.92 7.75923 14.6113 7.55299 14.2715 7.41235C13.9317 7.2717 13.5675 7.19941 13.1997 7.19961V7.19961Z" fill="#213F7D"/>
  <path d="M4.8 6.39981C5.35379 6.39981 5.89514 6.23559 6.3556 5.92792C6.81605 5.62025 7.17494 5.18295 7.38686 4.67132C7.59879 4.15969 7.65424 3.5967 7.5462 3.05355C7.43816 2.51041 7.17149 2.01149 6.7799 1.61991C6.38831 1.22832 5.8894 0.961646 5.34625 0.853607C4.80311 0.745569 4.24012 0.801018 3.72849 1.01294C3.21685 1.22487 2.77955 1.58375 2.47189 2.04421C2.16422 2.50467 2 3.04602 2 3.59981C1.9998 3.96756 2.07209 4.33175 2.21274 4.67155C2.35338 5.01135 2.55962 5.3201 2.81966 5.58014C3.0797 5.84019 3.38845 6.04643 3.72825 6.18707C4.06805 6.32771 4.43224 6.4 4.8 6.39981ZM6.72 7.19981H6.5125C5.97911 7.46052 5.39369 7.59726 4.8 7.59981C4.185 7.59981 3.61 7.44981 3.0875 7.19981H2.88C2.11624 7.20001 1.38381 7.5035 0.843752 8.04356C0.30369 8.58362 0.000198819 9.31604 0 10.0798L0 10.7998C0 11.1181 0.126428 11.4233 0.351472 11.6483C0.576516 11.8734 0.88174 11.9998 1.2 11.9998H8.4C8.71826 11.9998 9.02348 11.8734 9.24853 11.6483C9.47357 11.4233 9.6 11.1181 9.6 10.7998V10.0798C9.5998 9.31604 9.29631 8.58362 8.75625 8.04356C8.21619 7.5035 7.48376 7.20001 6.72 7.19981V7.19981Z" fill="#213F7D"/>
</svg>
