<svg xmlns="http://www.w3.org/2000/svg" width="16" height="13" viewBox="0 0 16 13" fill="none">
  <g clip-path="url(#clip0_64_752)">
    <path opacity="0.4" d="M15.9071 9.70497L15.2621 9.33247C15.3271 8.98045 15.3271 8.6195 15.2621 8.26747L15.9071 7.89497C15.9431 7.87438 15.971 7.84203 15.986 7.80334C16.001 7.76466 16.0023 7.72198 15.9896 7.68247C15.8234 7.14824 15.5398 6.65793 15.1596 6.24747C15.1316 6.21696 15.0941 6.19687 15.0532 6.19051C15.0123 6.18415 14.9705 6.19189 14.9346 6.21247L14.2896 6.58497C14.0171 6.35269 13.7045 6.17222 13.3671 6.05247V5.30747C13.367 5.2661 13.3529 5.22596 13.327 5.1937C13.3011 5.16143 13.265 5.13895 13.2246 5.12997C12.6797 5.00746 12.1144 5.00746 11.5696 5.12997C11.5292 5.13895 11.4931 5.16143 11.4672 5.1937C11.4412 5.22596 11.4271 5.2661 11.4271 5.30747V6.05247C11.0897 6.17222 10.777 6.35269 10.5046 6.58497L9.85957 6.21247C9.82364 6.19198 9.78183 6.18429 9.74096 6.19065C9.70009 6.19701 9.66258 6.21704 9.63457 6.24747C9.25437 6.65793 8.97078 7.14824 8.80457 7.68247C8.79249 7.72201 8.79405 7.76447 8.80902 7.80301C8.82398 7.84156 8.85147 7.87395 8.88707 7.89497L9.53207 8.26747C9.46708 8.6195 9.46708 8.98045 9.53207 9.33247L8.88707 9.70497C8.85104 9.72557 8.82319 9.75792 8.80817 9.7966C8.79315 9.83529 8.79188 9.87796 8.80457 9.91747C8.97136 10.4515 9.25488 10.9416 9.63457 11.3525C9.66253 11.383 9.70004 11.4031 9.74093 11.4094C9.78183 11.4158 9.82367 11.4081 9.85957 11.3875L10.5046 11.015C10.777 11.2473 11.0897 11.4277 11.4271 11.5475V12.2925C11.4271 12.3339 11.4412 12.374 11.4672 12.4062C11.4931 12.4385 11.5292 12.461 11.5696 12.47C12.1144 12.5925 12.6797 12.5925 13.2246 12.47C13.265 12.461 13.3011 12.4385 13.327 12.4062C13.3529 12.374 13.367 12.3339 13.3671 12.2925V11.5475C13.7045 11.4277 14.0171 11.2473 14.2896 11.015L14.9346 11.3875C14.9705 11.408 15.0123 11.4157 15.0532 11.4093C15.0941 11.4029 15.1316 11.3829 15.1596 11.3525C15.5398 10.942 15.8234 10.4517 15.9896 9.91747C16.0017 9.87793 16.0001 9.83548 15.9851 9.79693C15.9702 9.75839 15.9427 9.726 15.9071 9.70497V9.70497ZM12.3996 10.0125C12.1598 10.0125 11.9253 9.94136 11.7259 9.80813C11.5265 9.6749 11.3711 9.48553 11.2794 9.26398C11.1876 9.04242 11.1636 8.79863 11.2104 8.56343C11.2572 8.32822 11.3726 8.11218 11.5422 7.94261C11.7118 7.77304 11.9278 7.65756 12.163 7.61077C12.3982 7.56399 12.642 7.588 12.8636 7.67977C13.0851 7.77154 13.2745 7.92695 13.4077 8.12634C13.541 8.32574 13.6121 8.56016 13.6121 8.79997C13.6117 9.12145 13.4839 9.42966 13.2566 9.65698C13.0293 9.88429 12.721 10.0121 12.3996 10.0125V10.0125Z" fill="#213F7D"/>
    <path d="M10.63 12.2925V12.0625C10.5725 12.0325 10.515 11.9975 10.46 11.965L10.2625 12.08C10.0697 12.1919 9.84461 12.2348 9.62421 12.2016C9.40382 12.1684 9.20129 12.0612 9.05 11.8975C8.58975 11.3995 8.24641 10.805 8.045 10.1575C7.97798 9.94459 7.98582 9.71516 8.06723 9.50732C8.14863 9.29948 8.2987 9.12575 8.4925 9.015L8.69 8.9C8.6875 8.835 8.6875 8.77 8.69 8.705L8.4925 8.59C8.29857 8.47939 8.14838 8.30567 8.06696 8.09779C7.98554 7.88991 7.97778 7.6604 8.045 7.4475C8.0675 7.375 8.1 7.3025 8.125 7.23C8.03 7.2225 7.9375 7.2 7.84 7.2H7.4225C6.85106 7.46352 6.22927 7.59999 5.6 7.59999C4.97073 7.59999 4.34894 7.46352 3.7775 7.2H3.36C2.46893 7.2002 1.61442 7.55426 0.984341 8.18434C0.354262 8.81442 0.000198832 9.66894 0 10.56L0 11.6C0 11.9183 0.126428 12.2235 0.351472 12.4485C0.576516 12.6736 0.88174 12.8 1.2 12.8H10C10.243 12.7997 10.4801 12.7256 10.68 12.5875C10.6483 12.4923 10.6314 12.3928 10.63 12.2925V12.2925ZM5.6 6.4C6.2329 6.4 6.85159 6.21233 7.37782 5.8607C7.90406 5.50908 8.31421 5.00931 8.55641 4.42459C8.79862 3.83986 8.86199 3.19645 8.73851 2.57571C8.61504 1.95497 8.31027 1.38479 7.86274 0.93726C7.41521 0.489732 6.84503 0.184961 6.22429 0.0614885C5.60355 -0.0619842 4.96014 0.0013865 4.37541 0.243587C3.79069 0.485787 3.29092 0.895939 2.9393 1.42218C2.58768 1.94841 2.4 2.5671 2.4 3.2C2.4 4.04869 2.73714 4.86263 3.33726 5.46274C3.93737 6.06286 4.75131 6.4 5.6 6.4Z" fill="#213F7D"/>
  </g>
  <defs>
    <clipPath id="clip0_64_752">
      <rect width="16" height="12.8" fill="white"/>
    </clipPath>
  </defs>
</svg>
